<svg width="51" height="51" xmlns="http://www.w3.org/2000/svg" xml:space="preserve" version="1.1">
 <title>tw</title>

 <g>
  <title>Layer 1</title>
  <g id="svg_81">
   <g id="svg_82">
    <path id="svg_83" fill="#16FFBD" d="m13.7,23.6c0,2.4 2.1,3.7 4.4,4.1c-0.4,0.1 -0.6,0.5 -2.2,0.4c0.6,2 2.4,2.7 4.6,2.7c-1.7,1.3 -3.9,1.8 -6.3,1.8c-0.4,0 -0.8,0 -1.2,-0.1c2.2,1.4 4.8,2.8 7.7,2.8c9.2,0 13.7,-6.8 13.7,-13.5c0,-0.2 0,-0.4 0,-0.6c1,-0.7 2.5,-1.7 3.1,-2.7c-0.9,0.4 -1.9,0 -3,0.1c1,-0.6 2.3,-1.4 2.4,-3.2c-1,0.6 -2.3,1.3 -3.4,1.6c-0.9,-1 -2.2,-1.8 -3.7,-1.8c-2.8,0 -4.6,2.6 -4.6,5.3c0,0.4 0,0.6 0.1,1c-4.2,-0.2 -8.6,-1.6 -11.1,-4.6c-0.4,0.7 -0.7,1.6 -0.7,2.5c0,1.7 1.3,3.3 2.7,4.2c-0.6,0 -0.5,0.6 -2.5,0z" class="st0"/>
   </g>
   <g id="svg_84">
    <path id="svg_85" fill="#16FFBD" d="m25.3,50.6c-13.9,0 -25.3,-11.3 -25.3,-25.3s11.4,-25.3 25.3,-25.3s25.3,11.3 25.3,25.3s-11.4,25.3 -25.3,25.3zm0,-47.4c-12.2,0 -22.1,9.9 -22.1,22.1s9.9,22.1 22.1,22.1s22.1,-9.9 22.1,-22.1s-9.9,-22.1 -22.1,-22.1z" class="st0"/>
   </g>
  </g>
 </g>
</svg>